<?xml version="1.0" encoding="UTF-8"?>
<!DOCTYPE svg PUBLIC "-//W3C//DTD SVG 1.1//EN" "http://www.w3.org/Graphics/SVG/1.1/DTD/svg11.dtd">
<svg width="157mm" height="88mm" viewBox="0 0 15700 8800" version="1.1" xmlns="http://www.w3.org/2000/svg" xmlns:xlink="http://www.w3.org/1999/xlink" stroke-width="28.222" stroke-linejoin="round" xml:space="preserve">
 <path fill="rgb(255,255,255)" stroke="none" d="M 7839,8816 L 0,8816 0,0 15677,0 15677,8816 7839,8816 Z"/>
 <path fill="none" stroke="rgb(179,179,179)" stroke-linejoin="round" d="M 8559,7016 L 1946,7016 1946,378 15172,378 15172,7016 8559,7016 Z"/>
 <path fill="none" stroke="rgb(179,179,179)" stroke-linejoin="round" d="M 15172,7015 L 1946,7015"/>
 <path fill="none" stroke="rgb(179,179,179)" stroke-linejoin="round" d="M 15172,6683 L 1946,6683"/>
 <path fill="none" stroke="rgb(179,179,179)" stroke-linejoin="round" d="M 15172,6351 L 1946,6351"/>
 <path fill="none" stroke="rgb(179,179,179)" stroke-linejoin="round" d="M 15172,6019 L 1946,6019"/>
 <path fill="none" stroke="rgb(179,179,179)" stroke-linejoin="round" d="M 15172,5687 L 1946,5687"/>
 <path fill="none" stroke="rgb(179,179,179)" stroke-linejoin="round" d="M 15172,5355 L 1946,5355"/>
 <path fill="none" stroke="rgb(179,179,179)" stroke-linejoin="round" d="M 15172,5023 L 1946,5023"/>
 <path fill="none" stroke="rgb(179,179,179)" stroke-linejoin="round" d="M 15172,4691 L 1946,4691"/>
 <path fill="none" stroke="rgb(179,179,179)" stroke-linejoin="round" d="M 15172,4360 L 1946,4360"/>
 <path fill="none" stroke="rgb(179,179,179)" stroke-linejoin="round" d="M 15172,4028 L 1946,4028"/>
 <path fill="none" stroke="rgb(179,179,179)" stroke-linejoin="round" d="M 15172,3696 L 1946,3696"/>
 <path fill="none" stroke="rgb(179,179,179)" stroke-linejoin="round" d="M 15172,3364 L 1946,3364"/>
 <path fill="none" stroke="rgb(179,179,179)" stroke-linejoin="round" d="M 15172,3032 L 1946,3032"/>
 <path fill="none" stroke="rgb(179,179,179)" stroke-linejoin="round" d="M 15172,2700 L 1946,2700"/>
 <path fill="none" stroke="rgb(179,179,179)" stroke-linejoin="round" d="M 15172,2368 L 1946,2368"/>
 <path fill="none" stroke="rgb(179,179,179)" stroke-linejoin="round" d="M 15172,2036 L 1946,2036"/>
 <path fill="none" stroke="rgb(179,179,179)" stroke-linejoin="round" d="M 15172,1704 L 1946,1704"/>
 <path fill="none" stroke="rgb(179,179,179)" stroke-linejoin="round" d="M 15172,1372 L 1946,1372"/>
 <path fill="none" stroke="rgb(179,179,179)" stroke-linejoin="round" d="M 15172,1040 L 1946,1040"/>
 <path fill="none" stroke="rgb(179,179,179)" stroke-linejoin="round" d="M 15172,708 L 1946,708"/>
 <path fill="none" stroke="rgb(179,179,179)" stroke-linejoin="round" d="M 15172,376 L 1946,376"/>
 <path fill="none" stroke="rgb(179,179,179)" stroke-linejoin="round" d="M 1946,7165 L 1946,7015"/>
 <path fill="none" stroke="rgb(179,179,179)" stroke-linejoin="round" d="M 1946,7165 L 1946,7015"/>
 <path fill="none" stroke="rgb(179,179,179)" stroke-linejoin="round" d="M 3835,7165 L 3835,7015"/>
 <path fill="none" stroke="rgb(179,179,179)" stroke-linejoin="round" d="M 3835,7165 L 3835,7015"/>
 <path fill="none" stroke="rgb(179,179,179)" stroke-linejoin="round" d="M 5725,7165 L 5725,7015"/>
 <path fill="none" stroke="rgb(179,179,179)" stroke-linejoin="round" d="M 5725,7165 L 5725,7015"/>
 <path fill="none" stroke="rgb(179,179,179)" stroke-linejoin="round" d="M 7614,7165 L 7614,7015"/>
 <path fill="none" stroke="rgb(179,179,179)" stroke-linejoin="round" d="M 7614,7165 L 7614,7015"/>
 <path fill="none" stroke="rgb(179,179,179)" stroke-linejoin="round" d="M 9503,7165 L 9503,7015"/>
 <path fill="none" stroke="rgb(179,179,179)" stroke-linejoin="round" d="M 9503,7165 L 9503,7015"/>
 <path fill="none" stroke="rgb(179,179,179)" stroke-linejoin="round" d="M 11392,7165 L 11392,7015"/>
 <path fill="none" stroke="rgb(179,179,179)" stroke-linejoin="round" d="M 11392,7165 L 11392,7015"/>
 <path fill="none" stroke="rgb(179,179,179)" stroke-linejoin="round" d="M 13282,7165 L 13282,7015"/>
 <path fill="none" stroke="rgb(179,179,179)" stroke-linejoin="round" d="M 13282,7165 L 13282,7015"/>
 <path fill="none" stroke="rgb(179,179,179)" stroke-linejoin="round" d="M 15172,7165 L 15172,7015"/>
 <path fill="none" stroke="rgb(179,179,179)" stroke-linejoin="round" d="M 15172,7165 L 15172,7015"/>
 <path fill="none" stroke="rgb(179,179,179)" stroke-linejoin="round" d="M 1946,7015 L 15172,7015"/>
 <path fill="none" stroke="rgb(179,179,179)" stroke-linejoin="round" d="M 1796,7015 L 1946,7015"/>
 <path fill="none" stroke="rgb(179,179,179)" stroke-linejoin="round" d="M 1796,7015 L 1946,7015"/>
 <path fill="none" stroke="rgb(179,179,179)" stroke-linejoin="round" d="M 1796,6683 L 1946,6683"/>
 <path fill="none" stroke="rgb(179,179,179)" stroke-linejoin="round" d="M 1796,6683 L 1946,6683"/>
 <path fill="none" stroke="rgb(179,179,179)" stroke-linejoin="round" d="M 1796,6351 L 1946,6351"/>
 <path fill="none" stroke="rgb(179,179,179)" stroke-linejoin="round" d="M 1796,6351 L 1946,6351"/>
 <path fill="none" stroke="rgb(179,179,179)" stroke-linejoin="round" d="M 1796,6019 L 1946,6019"/>
 <path fill="none" stroke="rgb(179,179,179)" stroke-linejoin="round" d="M 1796,6019 L 1946,6019"/>
 <path fill="none" stroke="rgb(179,179,179)" stroke-linejoin="round" d="M 1796,5687 L 1946,5687"/>
 <path fill="none" stroke="rgb(179,179,179)" stroke-linejoin="round" d="M 1796,5687 L 1946,5687"/>
 <path fill="none" stroke="rgb(179,179,179)" stroke-linejoin="round" d="M 1796,5355 L 1946,5355"/>
 <path fill="none" stroke="rgb(179,179,179)" stroke-linejoin="round" d="M 1796,5355 L 1946,5355"/>
 <path fill="none" stroke="rgb(179,179,179)" stroke-linejoin="round" d="M 1796,5023 L 1946,5023"/>
 <path fill="none" stroke="rgb(179,179,179)" stroke-linejoin="round" d="M 1796,5023 L 1946,5023"/>
 <path fill="none" stroke="rgb(179,179,179)" stroke-linejoin="round" d="M 1796,4691 L 1946,4691"/>
 <path fill="none" stroke="rgb(179,179,179)" stroke-linejoin="round" d="M 1796,4691 L 1946,4691"/>
 <path fill="none" stroke="rgb(179,179,179)" stroke-linejoin="round" d="M 1796,4360 L 1946,4360"/>
 <path fill="none" stroke="rgb(179,179,179)" stroke-linejoin="round" d="M 1796,4360 L 1946,4360"/>
 <path fill="none" stroke="rgb(179,179,179)" stroke-linejoin="round" d="M 1796,4028 L 1946,4028"/>
 <path fill="none" stroke="rgb(179,179,179)" stroke-linejoin="round" d="M 1796,4028 L 1946,4028"/>
 <path fill="none" stroke="rgb(179,179,179)" stroke-linejoin="round" d="M 1796,3696 L 1946,3696"/>
 <path fill="none" stroke="rgb(179,179,179)" stroke-linejoin="round" d="M 1796,3696 L 1946,3696"/>
 <path fill="none" stroke="rgb(179,179,179)" stroke-linejoin="round" d="M 1796,3364 L 1946,3364"/>
 <path fill="none" stroke="rgb(179,179,179)" stroke-linejoin="round" d="M 1796,3364 L 1946,3364"/>
 <path fill="none" stroke="rgb(179,179,179)" stroke-linejoin="round" d="M 1796,3032 L 1946,3032"/>
 <path fill="none" stroke="rgb(179,179,179)" stroke-linejoin="round" d="M 1796,3032 L 1946,3032"/>
 <path fill="none" stroke="rgb(179,179,179)" stroke-linejoin="round" d="M 1796,2700 L 1946,2700"/>
 <path fill="none" stroke="rgb(179,179,179)" stroke-linejoin="round" d="M 1796,2700 L 1946,2700"/>
 <path fill="none" stroke="rgb(179,179,179)" stroke-linejoin="round" d="M 1796,2368 L 1946,2368"/>
 <path fill="none" stroke="rgb(179,179,179)" stroke-linejoin="round" d="M 1796,2368 L 1946,2368"/>
 <path fill="none" stroke="rgb(179,179,179)" stroke-linejoin="round" d="M 1796,2036 L 1946,2036"/>
 <path fill="none" stroke="rgb(179,179,179)" stroke-linejoin="round" d="M 1796,2036 L 1946,2036"/>
 <path fill="none" stroke="rgb(179,179,179)" stroke-linejoin="round" d="M 1796,1704 L 1946,1704"/>
 <path fill="none" stroke="rgb(179,179,179)" stroke-linejoin="round" d="M 1796,1704 L 1946,1704"/>
 <path fill="none" stroke="rgb(179,179,179)" stroke-linejoin="round" d="M 1796,1372 L 1946,1372"/>
 <path fill="none" stroke="rgb(179,179,179)" stroke-linejoin="round" d="M 1796,1372 L 1946,1372"/>
 <path fill="none" stroke="rgb(179,179,179)" stroke-linejoin="round" d="M 1796,1040 L 1946,1040"/>
 <path fill="none" stroke="rgb(179,179,179)" stroke-linejoin="round" d="M 1796,1040 L 1946,1040"/>
 <path fill="none" stroke="rgb(179,179,179)" stroke-linejoin="round" d="M 1796,708 L 1946,708"/>
 <path fill="none" stroke="rgb(179,179,179)" stroke-linejoin="round" d="M 1796,708 L 1946,708"/>
 <path fill="none" stroke="rgb(179,179,179)" stroke-linejoin="round" d="M 1796,376 L 1946,376"/>
 <path fill="none" stroke="rgb(179,179,179)" stroke-linejoin="round" d="M 1796,376 L 1946,376"/>
 <path fill="none" stroke="rgb(179,179,179)" stroke-linejoin="round" d="M 1946,7015 L 1946,376"/>
 <path fill="none" stroke="rgb(0,69,134)" stroke-width="80" stroke-linejoin="round" d="M 3835,7013 L 5725,7010 7614,6963 9503,5983 11392,5077 13282,6559"/>
 <path fill="rgb(0,69,134)" stroke="none" d="M 3710,6888 L 3710,7138 3960,7138 3960,6888 3710,6888 Z"/>
 <path fill="none" stroke="rgb(0,69,134)" stroke-linejoin="round" d="M 3710,6888 L 3710,7138 3960,7138 3960,6888 3710,6888 Z"/>
 <path fill="rgb(0,69,134)" stroke="none" d="M 5600,6885 L 5600,7135 5850,7135 5850,6885 5600,6885 Z"/>
 <path fill="none" stroke="rgb(0,69,134)" stroke-linejoin="round" d="M 5600,6885 L 5600,7135 5850,7135 5850,6885 5600,6885 Z"/>
 <path fill="rgb(0,69,134)" stroke="none" d="M 7489,6838 L 7489,7088 7739,7088 7739,6838 7489,6838 Z"/>
 <path fill="none" stroke="rgb(0,69,134)" stroke-linejoin="round" d="M 7489,6838 L 7489,7088 7739,7088 7739,6838 7489,6838 Z"/>
 <path fill="rgb(0,69,134)" stroke="none" d="M 9378,5858 L 9378,6108 9628,6108 9628,5858 9378,5858 Z"/>
 <path fill="none" stroke="rgb(0,69,134)" stroke-linejoin="round" d="M 9378,5858 L 9378,6108 9628,6108 9628,5858 9378,5858 Z"/>
 <path fill="rgb(0,69,134)" stroke="none" d="M 11267,4952 L 11267,5202 11517,5202 11517,4952 11267,4952 Z"/>
 <path fill="none" stroke="rgb(0,69,134)" stroke-linejoin="round" d="M 11267,4952 L 11267,5202 11517,5202 11517,4952 11267,4952 Z"/>
 <path fill="rgb(0,69,134)" stroke="none" d="M 13157,6434 L 13157,6684 13407,6684 13407,6434 13157,6434 Z"/>
 <path fill="none" stroke="rgb(0,69,134)" stroke-linejoin="round" d="M 13157,6434 L 13157,6684 13407,6684 13407,6434 13157,6434 Z"/>
 <path fill="none" stroke="rgb(0,0,0)" stroke-linejoin="round" d="M 3835,7013 L 3835,7013 3835,7011"/>
 <path fill="none" stroke="rgb(0,0,0)" stroke-linejoin="round" d="M 3935,7013 L 3735,7013"/>
 <path fill="none" stroke="rgb(0,0,0)" stroke-linejoin="round" d="M 3735,7011 L 3935,7011"/>
 <path fill="none" stroke="rgb(0,0,0)" stroke-linejoin="round" d="M 5725,7013 L 5725,7010 5725,6988"/>
 <path fill="none" stroke="rgb(0,0,0)" stroke-linejoin="round" d="M 5825,7013 L 5625,7013"/>
 <path fill="none" stroke="rgb(0,0,0)" stroke-linejoin="round" d="M 5625,6988 L 5825,6988"/>
 <path fill="none" stroke="rgb(0,0,0)" stroke-linejoin="round" d="M 7614,7013 L 7614,6963 7614,6578"/>
 <path fill="none" stroke="rgb(0,0,0)" stroke-linejoin="round" d="M 7714,7013 L 7514,7013"/>
 <path fill="none" stroke="rgb(0,0,0)" stroke-linejoin="round" d="M 7514,6578 L 7714,6578"/>
 <path fill="none" stroke="rgb(0,0,0)" stroke-linejoin="round" d="M 9503,7011 L 9503,5983 9503,773"/>
 <path fill="none" stroke="rgb(0,0,0)" stroke-linejoin="round" d="M 9603,7011 L 9403,7011"/>
 <path fill="none" stroke="rgb(0,0,0)" stroke-linejoin="round" d="M 9403,773 L 9603,773"/>
 <path fill="none" stroke="rgb(0,0,0)" stroke-linejoin="round" d="M 11392,6996 L 11392,5077 11392,1073"/>
 <path fill="none" stroke="rgb(0,0,0)" stroke-linejoin="round" d="M 11492,6996 L 11292,6996"/>
 <path fill="none" stroke="rgb(0,0,0)" stroke-linejoin="round" d="M 11292,1073 L 11492,1073"/>
 <path fill="none" stroke="rgb(0,0,0)" stroke-linejoin="round" d="M 13282,6979 L 13282,6559 13282,6139"/>
 <path fill="none" stroke="rgb(0,0,0)" stroke-linejoin="round" d="M 13382,6979 L 13182,6979"/>
 <path fill="none" stroke="rgb(0,0,0)" stroke-linejoin="round" d="M 13182,6139 L 13382,6139"/>
 <text class="SVGTextShape"><tspan class="TextParagraph" font-family="Liberation Sans, sans-serif" font-size="353px" font-weight="400"><tspan class="TextPosition" x="1850" y="7583"><tspan fill="rgb(0,0,0)" stroke="none">4</tspan></tspan></tspan></text>
 <text class="SVGTextShape"><tspan class="TextParagraph" font-family="Liberation Sans, sans-serif" font-size="353px" font-weight="400"><tspan class="TextPosition" x="3739" y="7583"><tspan fill="rgb(0,0,0)" stroke="none">5</tspan></tspan></tspan></text>
 <text class="SVGTextShape"><tspan class="TextParagraph" font-family="Liberation Sans, sans-serif" font-size="353px" font-weight="400"><tspan class="TextPosition" x="5629" y="7583"><tspan fill="rgb(0,0,0)" stroke="none">6</tspan></tspan></tspan></text>
 <text class="SVGTextShape"><tspan class="TextParagraph" font-family="Liberation Sans, sans-serif" font-size="353px" font-weight="400"><tspan class="TextPosition" x="7518" y="7583"><tspan fill="rgb(0,0,0)" stroke="none">7</tspan></tspan></tspan></text>
 <text class="SVGTextShape"><tspan class="TextParagraph" font-family="Liberation Sans, sans-serif" font-size="353px" font-weight="400"><tspan class="TextPosition" x="9408" y="7583"><tspan fill="rgb(0,0,0)" stroke="none">8</tspan></tspan></tspan></text>
 <text class="SVGTextShape"><tspan class="TextParagraph" font-family="Liberation Sans, sans-serif" font-size="353px" font-weight="400"><tspan class="TextPosition" x="11297" y="7583"><tspan fill="rgb(0,0,0)" stroke="none">9</tspan></tspan></tspan></text>
 <text class="SVGTextShape"><tspan class="TextParagraph" font-family="Liberation Sans, sans-serif" font-size="353px" font-weight="400"><tspan class="TextPosition" x="13092" y="7583"><tspan fill="rgb(0,0,0)" stroke="none">10</tspan></tspan></tspan></text>
 <text class="SVGTextShape"><tspan class="TextParagraph" font-family="Liberation Sans, sans-serif" font-size="353px" font-weight="400"><tspan class="TextPosition" x="14982" y="7583"><tspan fill="rgb(0,0,0)" stroke="none">11</tspan></tspan></tspan></text>
 <text class="SVGTextShape"><tspan class="TextParagraph" font-family="Liberation Sans, sans-serif" font-size="353px" font-weight="400"><tspan class="TextPosition" x="1505" y="7133"><tspan fill="rgb(0,0,0)" stroke="none">0</tspan></tspan></tspan></text>
 <text class="SVGTextShape"><tspan class="TextParagraph" font-family="Liberation Sans, sans-serif" font-size="353px" font-weight="400"><tspan class="TextPosition" x="1505" y="6469"><tspan fill="rgb(0,0,0)" stroke="none">1</tspan></tspan></tspan></text>
 <text class="SVGTextShape"><tspan class="TextParagraph" font-family="Liberation Sans, sans-serif" font-size="353px" font-weight="400"><tspan class="TextPosition" x="1505" y="5805"><tspan fill="rgb(0,0,0)" stroke="none">2</tspan></tspan></tspan></text>
 <text class="SVGTextShape"><tspan class="TextParagraph" font-family="Liberation Sans, sans-serif" font-size="353px" font-weight="400"><tspan class="TextPosition" x="1505" y="5141"><tspan fill="rgb(0,0,0)" stroke="none">3</tspan></tspan></tspan></text>
 <text class="SVGTextShape"><tspan class="TextParagraph" font-family="Liberation Sans, sans-serif" font-size="353px" font-weight="400"><tspan class="TextPosition" x="1505" y="4477"><tspan fill="rgb(0,0,0)" stroke="none">4</tspan></tspan></tspan></text>
 <text class="SVGTextShape"><tspan class="TextParagraph" font-family="Liberation Sans, sans-serif" font-size="353px" font-weight="400"><tspan class="TextPosition" x="1505" y="3813"><tspan fill="rgb(0,0,0)" stroke="none">5</tspan></tspan></tspan></text>
 <text class="SVGTextShape"><tspan class="TextParagraph" font-family="Liberation Sans, sans-serif" font-size="353px" font-weight="400"><tspan class="TextPosition" x="1505" y="3149"><tspan fill="rgb(0,0,0)" stroke="none">6</tspan></tspan></tspan></text>
 <text class="SVGTextShape"><tspan class="TextParagraph" font-family="Liberation Sans, sans-serif" font-size="353px" font-weight="400"><tspan class="TextPosition" x="1505" y="2485"><tspan fill="rgb(0,0,0)" stroke="none">7</tspan></tspan></tspan></text>
 <text class="SVGTextShape"><tspan class="TextParagraph" font-family="Liberation Sans, sans-serif" font-size="353px" font-weight="400"><tspan class="TextPosition" x="1505" y="1821"><tspan fill="rgb(0,0,0)" stroke="none">8</tspan></tspan></tspan></text>
 <text class="SVGTextShape"><tspan class="TextParagraph" font-family="Liberation Sans, sans-serif" font-size="353px" font-weight="400"><tspan class="TextPosition" x="1505" y="1157"><tspan fill="rgb(0,0,0)" stroke="none">9</tspan></tspan></tspan></text>
 <text class="SVGTextShape"><tspan class="TextParagraph" font-family="Liberation Sans, sans-serif" font-size="353px" font-weight="400"><tspan class="TextPosition" x="1315" y="493"><tspan fill="rgb(0,0,0)" stroke="none">10</tspan></tspan></tspan></text>
 <text class="SVGTextShape"><tspan class="TextParagraph" font-family="Liberation Sans, sans-serif" font-size="318px" font-weight="400"><tspan class="TextPosition" x="7524" y="8237"><tspan fill="rgb(0,0,0)" stroke="none">Dimensiune</tspan></tspan></tspan></text>
 <text class="SVGTextShape" transform="rotate(-90 842 4261)"><tspan class="TextParagraph" font-family="Liberation Sans, sans-serif" font-size="318px" font-weight="400"><tspan class="TextPosition" x="842" y="4261"><tspan fill="rgb(0,0,0)" stroke="none">Timp</tspan></tspan></tspan></text>
</svg>