<?xml version="1.0" encoding="UTF-8"?>
<!DOCTYPE svg PUBLIC "-//W3C//DTD SVG 1.1//EN" "http://www.w3.org/Graphics/SVG/1.1/DTD/svg11.dtd">
<svg width="178mm" height="180mm" viewBox="0 0 17800 18000" version="1.1" xmlns="http://www.w3.org/2000/svg" xmlns:xlink="http://www.w3.org/1999/xlink" stroke-width="28.222" stroke-linejoin="round" xml:space="preserve">
 <path fill="rgb(255,255,255)" stroke="none" d="M 8888,18031 L 0,18031 0,0 17776,0 17776,18031 8888,18031 Z"/>
 <path fill="none" stroke="rgb(179,179,179)" stroke-linejoin="round" d="M 9041,16358 L 1173,16358 1173,781 16910,781 16910,16358 9041,16358 Z"/>
 <path fill="none" stroke="rgb(179,179,179)" stroke-linejoin="round" d="M 16910,16357 L 1173,16357"/>
 <path fill="none" stroke="rgb(179,179,179)" stroke-linejoin="round" d="M 16910,14409 L 1173,14409"/>
 <path fill="none" stroke="rgb(179,179,179)" stroke-linejoin="round" d="M 16910,12462 L 1173,12462"/>
 <path fill="none" stroke="rgb(179,179,179)" stroke-linejoin="round" d="M 16910,10515 L 1173,10515"/>
 <path fill="none" stroke="rgb(179,179,179)" stroke-linejoin="round" d="M 16910,8569 L 1173,8569"/>
 <path fill="none" stroke="rgb(179,179,179)" stroke-linejoin="round" d="M 16910,6621 L 1173,6621"/>
 <path fill="none" stroke="rgb(179,179,179)" stroke-linejoin="round" d="M 16910,4674 L 1173,4674"/>
 <path fill="none" stroke="rgb(179,179,179)" stroke-linejoin="round" d="M 16910,2727 L 1173,2727"/>
 <path fill="none" stroke="rgb(179,179,179)" stroke-linejoin="round" d="M 16910,780 L 1173,780"/>
 <path fill="none" stroke="rgb(179,179,179)" stroke-linejoin="round" d="M 1173,16507 L 1173,16357"/>
 <path fill="none" stroke="rgb(179,179,179)" stroke-linejoin="round" d="M 1173,16507 L 1173,16357"/>
 <path fill="none" stroke="rgb(179,179,179)" stroke-linejoin="round" d="M 2603,16507 L 2603,16357"/>
 <path fill="none" stroke="rgb(179,179,179)" stroke-linejoin="round" d="M 2603,16507 L 2603,16357"/>
 <path fill="none" stroke="rgb(179,179,179)" stroke-linejoin="round" d="M 4034,16507 L 4034,16357"/>
 <path fill="none" stroke="rgb(179,179,179)" stroke-linejoin="round" d="M 4034,16507 L 4034,16357"/>
 <path fill="none" stroke="rgb(179,179,179)" stroke-linejoin="round" d="M 5465,16507 L 5465,16357"/>
 <path fill="none" stroke="rgb(179,179,179)" stroke-linejoin="round" d="M 5465,16507 L 5465,16357"/>
 <path fill="none" stroke="rgb(179,179,179)" stroke-linejoin="round" d="M 6895,16507 L 6895,16357"/>
 <path fill="none" stroke="rgb(179,179,179)" stroke-linejoin="round" d="M 6895,16507 L 6895,16357"/>
 <path fill="none" stroke="rgb(179,179,179)" stroke-linejoin="round" d="M 8326,16507 L 8326,16357"/>
 <path fill="none" stroke="rgb(179,179,179)" stroke-linejoin="round" d="M 8326,16507 L 8326,16357"/>
 <path fill="none" stroke="rgb(179,179,179)" stroke-linejoin="round" d="M 9756,16507 L 9756,16357"/>
 <path fill="none" stroke="rgb(179,179,179)" stroke-linejoin="round" d="M 9756,16507 L 9756,16357"/>
 <path fill="none" stroke="rgb(179,179,179)" stroke-linejoin="round" d="M 11187,16507 L 11187,16357"/>
 <path fill="none" stroke="rgb(179,179,179)" stroke-linejoin="round" d="M 11187,16507 L 11187,16357"/>
 <path fill="none" stroke="rgb(179,179,179)" stroke-linejoin="round" d="M 12617,16507 L 12617,16357"/>
 <path fill="none" stroke="rgb(179,179,179)" stroke-linejoin="round" d="M 12617,16507 L 12617,16357"/>
 <path fill="none" stroke="rgb(179,179,179)" stroke-linejoin="round" d="M 14048,16507 L 14048,16357"/>
 <path fill="none" stroke="rgb(179,179,179)" stroke-linejoin="round" d="M 14048,16507 L 14048,16357"/>
 <path fill="none" stroke="rgb(179,179,179)" stroke-linejoin="round" d="M 15479,16507 L 15479,16357"/>
 <path fill="none" stroke="rgb(179,179,179)" stroke-linejoin="round" d="M 15479,16507 L 15479,16357"/>
 <path fill="none" stroke="rgb(179,179,179)" stroke-linejoin="round" d="M 16910,16507 L 16910,16357"/>
 <path fill="none" stroke="rgb(179,179,179)" stroke-linejoin="round" d="M 16910,16507 L 16910,16357"/>
 <path fill="none" stroke="rgb(179,179,179)" stroke-linejoin="round" d="M 1173,16357 L 16910,16357"/>
 <path fill="none" stroke="rgb(179,179,179)" stroke-linejoin="round" d="M 1023,16357 L 1173,16357"/>
 <path fill="none" stroke="rgb(179,179,179)" stroke-linejoin="round" d="M 1023,16357 L 1173,16357"/>
 <path fill="none" stroke="rgb(179,179,179)" stroke-linejoin="round" d="M 1023,14409 L 1173,14409"/>
 <path fill="none" stroke="rgb(179,179,179)" stroke-linejoin="round" d="M 1023,14409 L 1173,14409"/>
 <path fill="none" stroke="rgb(179,179,179)" stroke-linejoin="round" d="M 1023,12462 L 1173,12462"/>
 <path fill="none" stroke="rgb(179,179,179)" stroke-linejoin="round" d="M 1023,12462 L 1173,12462"/>
 <path fill="none" stroke="rgb(179,179,179)" stroke-linejoin="round" d="M 1023,10515 L 1173,10515"/>
 <path fill="none" stroke="rgb(179,179,179)" stroke-linejoin="round" d="M 1023,10515 L 1173,10515"/>
 <path fill="none" stroke="rgb(179,179,179)" stroke-linejoin="round" d="M 1023,8569 L 1173,8569"/>
 <path fill="none" stroke="rgb(179,179,179)" stroke-linejoin="round" d="M 1023,8569 L 1173,8569"/>
 <path fill="none" stroke="rgb(179,179,179)" stroke-linejoin="round" d="M 1023,6621 L 1173,6621"/>
 <path fill="none" stroke="rgb(179,179,179)" stroke-linejoin="round" d="M 1023,6621 L 1173,6621"/>
 <path fill="none" stroke="rgb(179,179,179)" stroke-linejoin="round" d="M 1023,4674 L 1173,4674"/>
 <path fill="none" stroke="rgb(179,179,179)" stroke-linejoin="round" d="M 1023,4674 L 1173,4674"/>
 <path fill="none" stroke="rgb(179,179,179)" stroke-linejoin="round" d="M 1023,2727 L 1173,2727"/>
 <path fill="none" stroke="rgb(179,179,179)" stroke-linejoin="round" d="M 1023,2727 L 1173,2727"/>
 <path fill="none" stroke="rgb(179,179,179)" stroke-linejoin="round" d="M 1023,780 L 1173,780"/>
 <path fill="none" stroke="rgb(179,179,179)" stroke-linejoin="round" d="M 1023,780 L 1173,780"/>
 <path fill="none" stroke="rgb(179,179,179)" stroke-linejoin="round" d="M 1173,16357 L 1173,780"/>
 <path fill="none" stroke="rgb(0,69,134)" stroke-width="80" stroke-linejoin="round" d="M 2603,16244 L 4034,16185 5465,16097 6895,15974 8326,15828 9756,15541 11187,15182 12617,14827 14048,13853 15479,11489"/>
 <path fill="rgb(0,69,134)" stroke="none" d="M 2478,16119 L 2478,16369 2728,16369 2728,16119 2478,16119 Z"/>
 <path fill="none" stroke="rgb(0,69,134)" stroke-linejoin="round" d="M 2478,16119 L 2478,16369 2728,16369 2728,16119 2478,16119 Z"/>
 <path fill="rgb(0,69,134)" stroke="none" d="M 3909,16060 L 3909,16310 4159,16310 4159,16060 3909,16060 Z"/>
 <path fill="none" stroke="rgb(0,69,134)" stroke-linejoin="round" d="M 3909,16060 L 3909,16310 4159,16310 4159,16060 3909,16060 Z"/>
 <path fill="rgb(0,69,134)" stroke="none" d="M 5340,15972 L 5340,16222 5590,16222 5590,15972 5340,15972 Z"/>
 <path fill="none" stroke="rgb(0,69,134)" stroke-linejoin="round" d="M 5340,15972 L 5340,16222 5590,16222 5590,15972 5340,15972 Z"/>
 <path fill="rgb(0,69,134)" stroke="none" d="M 6770,15849 L 6770,16099 7020,16099 7020,15849 6770,15849 Z"/>
 <path fill="none" stroke="rgb(0,69,134)" stroke-linejoin="round" d="M 6770,15849 L 6770,16099 7020,16099 7020,15849 6770,15849 Z"/>
 <path fill="rgb(0,69,134)" stroke="none" d="M 8201,15703 L 8201,15953 8451,15953 8451,15703 8201,15703 Z"/>
 <path fill="none" stroke="rgb(0,69,134)" stroke-linejoin="round" d="M 8201,15703 L 8201,15953 8451,15953 8451,15703 8201,15703 Z"/>
 <path fill="rgb(0,69,134)" stroke="none" d="M 9631,15416 L 9631,15666 9881,15666 9881,15416 9631,15416 Z"/>
 <path fill="none" stroke="rgb(0,69,134)" stroke-linejoin="round" d="M 9631,15416 L 9631,15666 9881,15666 9881,15416 9631,15416 Z"/>
 <path fill="rgb(0,69,134)" stroke="none" d="M 11062,15057 L 11062,15307 11312,15307 11312,15057 11062,15057 Z"/>
 <path fill="none" stroke="rgb(0,69,134)" stroke-linejoin="round" d="M 11062,15057 L 11062,15307 11312,15307 11312,15057 11062,15057 Z"/>
 <path fill="rgb(0,69,134)" stroke="none" d="M 12492,14702 L 12492,14952 12742,14952 12742,14702 12492,14702 Z"/>
 <path fill="none" stroke="rgb(0,69,134)" stroke-linejoin="round" d="M 12492,14702 L 12492,14952 12742,14952 12742,14702 12492,14702 Z"/>
 <path fill="rgb(0,69,134)" stroke="none" d="M 13923,13728 L 13923,13978 14173,13978 14173,13728 13923,13728 Z"/>
 <path fill="none" stroke="rgb(0,69,134)" stroke-linejoin="round" d="M 13923,13728 L 13923,13978 14173,13978 14173,13728 13923,13728 Z"/>
 <path fill="rgb(0,69,134)" stroke="none" d="M 15354,11364 L 15354,11614 15604,11614 15604,11364 15354,11364 Z"/>
 <path fill="none" stroke="rgb(0,69,134)" stroke-linejoin="round" d="M 15354,11364 L 15354,11614 15604,11614 15604,11364 15354,11364 Z"/>
 <path fill="none" stroke="rgb(0,0,0)" stroke-width="50" stroke-linejoin="round" d="M 2603,16260 L 2603,16244 2603,16208"/>
 <path fill="none" stroke="rgb(0,0,0)" stroke-width="50" stroke-linejoin="round" d="M 2703,16260 L 2503,16260"/>
 <path fill="none" stroke="rgb(0,0,0)" stroke-width="50" stroke-linejoin="round" d="M 2503,16208 L 2703,16208"/>
 <path fill="none" stroke="rgb(0,0,0)" stroke-width="50" stroke-linejoin="round" d="M 4034,16213 L 4034,16185 4034,16117"/>
 <path fill="none" stroke="rgb(0,0,0)" stroke-width="50" stroke-linejoin="round" d="M 4134,16213 L 3934,16213"/>
 <path fill="none" stroke="rgb(0,0,0)" stroke-width="50" stroke-linejoin="round" d="M 3934,16117 L 4134,16117"/>
 <path fill="none" stroke="rgb(0,0,0)" stroke-width="50" stroke-linejoin="round" d="M 5465,16141 L 5465,16097 5465,16009"/>
 <path fill="none" stroke="rgb(0,0,0)" stroke-width="50" stroke-linejoin="round" d="M 5565,16141 L 5365,16141"/>
 <path fill="none" stroke="rgb(0,0,0)" stroke-width="50" stroke-linejoin="round" d="M 5365,16009 L 5565,16009"/>
 <path fill="none" stroke="rgb(0,0,0)" stroke-width="50" stroke-linejoin="round" d="M 6895,16052 L 6895,15974 6895,15725"/>
 <path fill="none" stroke="rgb(0,0,0)" stroke-width="50" stroke-linejoin="round" d="M 6995,16052 L 6795,16052"/>
 <path fill="none" stroke="rgb(0,0,0)" stroke-width="50" stroke-linejoin="round" d="M 6795,15725 L 6995,15725"/>
 <path fill="none" stroke="rgb(0,0,0)" stroke-width="50" stroke-linejoin="round" d="M 8326,15911 L 8326,15828 8326,15545"/>
 <path fill="none" stroke="rgb(0,0,0)" stroke-width="50" stroke-linejoin="round" d="M 8426,15911 L 8226,15911"/>
 <path fill="none" stroke="rgb(0,0,0)" stroke-width="50" stroke-linejoin="round" d="M 8226,15545 L 8426,15545"/>
 <path fill="none" stroke="rgb(0,0,0)" stroke-width="50" stroke-linejoin="round" d="M 9756,15674 L 9756,15541 9756,15186"/>
 <path fill="none" stroke="rgb(0,0,0)" stroke-width="50" stroke-linejoin="round" d="M 9856,15674 L 9656,15674"/>
 <path fill="none" stroke="rgb(0,0,0)" stroke-width="50" stroke-linejoin="round" d="M 9656,15186 L 9856,15186"/>
 <path fill="none" stroke="rgb(0,0,0)" stroke-width="50" stroke-linejoin="round" d="M 11187,15448 L 11187,15182 11187,14143"/>
 <path fill="none" stroke="rgb(0,0,0)" stroke-width="50" stroke-linejoin="round" d="M 11287,15448 L 11087,15448"/>
 <path fill="none" stroke="rgb(0,0,0)" stroke-width="50" stroke-linejoin="round" d="M 11087,14143 L 11287,14143"/>
 <path fill="none" stroke="rgb(0,0,0)" stroke-width="50" stroke-linejoin="round" d="M 12617,15077 L 12617,14827 12617,14266"/>
 <path fill="none" stroke="rgb(0,0,0)" stroke-width="50" stroke-linejoin="round" d="M 12717,15077 L 12517,15077"/>
 <path fill="none" stroke="rgb(0,0,0)" stroke-width="50" stroke-linejoin="round" d="M 12517,14266 L 12717,14266"/>
 <path fill="none" stroke="rgb(0,0,0)" stroke-width="50" stroke-linejoin="round" d="M 14048,14623 L 14048,13853 14048,8283"/>
 <path fill="none" stroke="rgb(0,0,0)" stroke-width="50" stroke-linejoin="round" d="M 14148,14623 L 13948,14623"/>
 <path fill="none" stroke="rgb(0,0,0)" stroke-width="50" stroke-linejoin="round" d="M 13948,8283 L 14148,8283"/>
 <path fill="none" stroke="rgb(0,0,0)" stroke-width="50" stroke-linejoin="round" d="M 15479,14115 L 15479,11489 15479,1695"/>
 <path fill="none" stroke="rgb(0,0,0)" stroke-width="50" stroke-linejoin="round" d="M 15579,14115 L 15379,14115"/>
 <path fill="none" stroke="rgb(0,0,0)" stroke-width="50" stroke-linejoin="round" d="M 15379,1695 L 15579,1695"/>
 <text class="SVGTextShape"><tspan class="TextParagraph" font-family="Liberation Sans, sans-serif" font-size="353px" font-weight="400"><tspan class="TextPosition" x="1077" y="16925"><tspan fill="rgb(0,0,0)" stroke="none">4</tspan></tspan></tspan></text>
 <text class="SVGTextShape"><tspan class="TextParagraph" font-family="Liberation Sans, sans-serif" font-size="353px" font-weight="400"><tspan class="TextPosition" x="2507" y="16925"><tspan fill="rgb(0,0,0)" stroke="none">5</tspan></tspan></tspan></text>
 <text class="SVGTextShape"><tspan class="TextParagraph" font-family="Liberation Sans, sans-serif" font-size="353px" font-weight="400"><tspan class="TextPosition" x="3938" y="16925"><tspan fill="rgb(0,0,0)" stroke="none">6</tspan></tspan></tspan></text>
 <text class="SVGTextShape"><tspan class="TextParagraph" font-family="Liberation Sans, sans-serif" font-size="353px" font-weight="400"><tspan class="TextPosition" x="5369" y="16925"><tspan fill="rgb(0,0,0)" stroke="none">7</tspan></tspan></tspan></text>
 <text class="SVGTextShape"><tspan class="TextParagraph" font-family="Liberation Sans, sans-serif" font-size="353px" font-weight="400"><tspan class="TextPosition" x="6799" y="16925"><tspan fill="rgb(0,0,0)" stroke="none">8</tspan></tspan></tspan></text>
 <text class="SVGTextShape"><tspan class="TextParagraph" font-family="Liberation Sans, sans-serif" font-size="353px" font-weight="400"><tspan class="TextPosition" x="8230" y="16925"><tspan fill="rgb(0,0,0)" stroke="none">9</tspan></tspan></tspan></text>
 <text class="SVGTextShape"><tspan class="TextParagraph" font-family="Liberation Sans, sans-serif" font-size="353px" font-weight="400"><tspan class="TextPosition" x="9566" y="16925"><tspan fill="rgb(0,0,0)" stroke="none">10</tspan></tspan></tspan></text>
 <text class="SVGTextShape"><tspan class="TextParagraph" font-family="Liberation Sans, sans-serif" font-size="353px" font-weight="400"><tspan class="TextPosition" x="10997" y="16925"><tspan fill="rgb(0,0,0)" stroke="none">11</tspan></tspan></tspan></text>
 <text class="SVGTextShape"><tspan class="TextParagraph" font-family="Liberation Sans, sans-serif" font-size="353px" font-weight="400"><tspan class="TextPosition" x="12427" y="16925"><tspan fill="rgb(0,0,0)" stroke="none">12</tspan></tspan></tspan></text>
 <text class="SVGTextShape"><tspan class="TextParagraph" font-family="Liberation Sans, sans-serif" font-size="353px" font-weight="400"><tspan class="TextPosition" x="13858" y="16925"><tspan fill="rgb(0,0,0)" stroke="none">13</tspan></tspan></tspan></text>
 <text class="SVGTextShape"><tspan class="TextParagraph" font-family="Liberation Sans, sans-serif" font-size="353px" font-weight="400"><tspan class="TextPosition" x="15289" y="16925"><tspan fill="rgb(0,0,0)" stroke="none">14</tspan></tspan></tspan></text>
 <text class="SVGTextShape"><tspan class="TextParagraph" font-family="Liberation Sans, sans-serif" font-size="353px" font-weight="400"><tspan class="TextPosition" x="16720" y="16925"><tspan fill="rgb(0,0,0)" stroke="none">15</tspan></tspan></tspan></text>
 <text class="SVGTextShape"><tspan class="TextParagraph" font-family="Liberation Sans, sans-serif" font-size="353px" font-weight="400"><tspan class="TextPosition" x="732" y="16475"><tspan fill="rgb(0,0,0)" stroke="none">0</tspan></tspan></tspan></text>
 <text class="SVGTextShape"><tspan class="TextParagraph" font-family="Liberation Sans, sans-serif" font-size="353px" font-weight="400"><tspan class="TextPosition" x="436" y="14527"><tspan fill="rgb(0,0,0)" stroke="none">0.5</tspan></tspan></tspan></text>
 <text class="SVGTextShape"><tspan class="TextParagraph" font-family="Liberation Sans, sans-serif" font-size="353px" font-weight="400"><tspan class="TextPosition" x="732" y="12580"><tspan fill="rgb(0,0,0)" stroke="none">1</tspan></tspan></tspan></text>
 <text class="SVGTextShape"><tspan class="TextParagraph" font-family="Liberation Sans, sans-serif" font-size="353px" font-weight="400"><tspan class="TextPosition" x="436" y="10633"><tspan fill="rgb(0,0,0)" stroke="none">1.5</tspan></tspan></tspan></text>
 <text class="SVGTextShape"><tspan class="TextParagraph" font-family="Liberation Sans, sans-serif" font-size="353px" font-weight="400"><tspan class="TextPosition" x="732" y="8686"><tspan fill="rgb(0,0,0)" stroke="none">2</tspan></tspan></tspan></text>
 <text class="SVGTextShape"><tspan class="TextParagraph" font-family="Liberation Sans, sans-serif" font-size="353px" font-weight="400"><tspan class="TextPosition" x="436" y="6738"><tspan fill="rgb(0,0,0)" stroke="none">2.5</tspan></tspan></tspan></text>
 <text class="SVGTextShape"><tspan class="TextParagraph" font-family="Liberation Sans, sans-serif" font-size="353px" font-weight="400"><tspan class="TextPosition" x="732" y="4791"><tspan fill="rgb(0,0,0)" stroke="none">3</tspan></tspan></tspan></text>
 <text class="SVGTextShape"><tspan class="TextParagraph" font-family="Liberation Sans, sans-serif" font-size="353px" font-weight="400"><tspan class="TextPosition" x="436" y="2844"><tspan fill="rgb(0,0,0)" stroke="none">3.5</tspan></tspan></tspan></text>
 <text class="SVGTextShape"><tspan class="TextParagraph" font-family="Liberation Sans, sans-serif" font-size="353px" font-weight="400"><tspan class="TextPosition" x="732" y="897"><tspan fill="rgb(0,0,0)" stroke="none">4</tspan></tspan></tspan></text>
 <text class="SVGTextShape"><tspan class="TextParagraph" font-family="Liberation Sans, sans-serif" font-size="318px" font-weight="400"><tspan class="TextPosition" x="7954" y="17763"><tspan fill="rgb(0,0,0)" stroke="none">Dimensiune</tspan></tspan></tspan></text>
 <text class="SVGTextShape" transform="rotate(-90 391 9133)"><tspan class="TextParagraph" font-family="Liberation Sans, sans-serif" font-size="318px" font-weight="400"><tspan class="TextPosition" x="391" y="9133"><tspan fill="rgb(0,0,0)" stroke="none">Timp</tspan></tspan></tspan></text>
</svg>